{
	"asset":{
		"generator":"Khronos glTF Blender I/O v4.4.55",
		"version":"2.0"
	},
	"scene":0,
	"scenes":[
		{
			"name":"Scene",
			"nodes":[
				0,
				1,
				2,
				3,
				4,
				5,
				6
			]
		}
	],
	"nodes":[
		{
			"mesh":0,
			"name":"avaturn_body"
		},
		{
			"mesh":1,
			"name":"avaturn_glasses_0"
		},
		{
			"mesh":2,
			"name":"avaturn_glasses_1"
		},
		{
			"mesh":3,
			"name":"avaturn_hair_0"
		},
		{
			"mesh":4,
			"name":"avaturn_hair_1"
		},
		{
			"mesh":5,
			"name":"avaturn_look_0"
		},
		{
			"mesh":6,
			"name":"avaturn_shoes_0"
		}
	],
	"materials":[
		{
			"doubleSided":true,
			"name":"avaturn_body_material.001",
			"normalTexture":{
				"index":0
			},
			"pbrMetallicRoughness":{
				"baseColorTexture":{
					"index":1
				},
				"metallicRoughnessTexture":{
					"index":2
				}
			}
		},
		{
			"doubleSided":true,
			"name":"avaturn_glasses_0_material.001",
			"pbrMetallicRoughness":{
				"baseColorTexture":{
					"index":3
				},
				"metallicRoughnessTexture":{
					"index":4
				}
			}
		},
		{
			"doubleSided":true,
			"name":"avaturn_glasses_1_material.001",
			"pbrMetallicRoughness":{
				"baseColorFactor":[
					0,
					0,
					0,
					1
				],
				"metallicFactor":0,
				"roughnessFactor":0
			}
		},
		{
			"alphaMode":"MASK",
			"doubleSided":true,
			"name":"avaturn_hair_0_material.001",
			"normalTexture":{
				"index":5
			},
			"pbrMetallicRoughness":{
				"baseColorTexture":{
					"index":6
				},
				"metallicFactor":0.19090910255908966,
				"roughnessFactor":0.8999999761581421
			}
		},
		{
			"alphaMode":"BLEND",
			"name":"avaturn_hair_1_material.001",
			"normalTexture":{
				"index":7
			},
			"pbrMetallicRoughness":{
				"baseColorTexture":{
					"index":8
				},
				"metallicFactor":0.19090910255908966,
				"roughnessFactor":0.8999999761581421
			}
		},
		{
			"doubleSided":true,
			"name":"avaturn_look_0_material.001",
			"normalTexture":{
				"index":9
			},
			"occlusionTexture":{
				"index":10
			},
			"pbrMetallicRoughness":{
				"baseColorTexture":{
					"index":11
				},
				"metallicRoughnessTexture":{
					"index":12
				}
			}
		},
		{
			"doubleSided":true,
			"name":"avaturn_shoes_0_material.001",
			"normalTexture":{
				"index":13
			},
			"occlusionTexture":{
				"index":14
			},
			"pbrMetallicRoughness":{
				"baseColorTexture":{
					"index":15
				},
				"metallicRoughnessTexture":{
					"index":16
				}
			}
		}
	],
	"meshes":[
		{
			"name":"avaturn_body.001",
			"primitives":[
				{
					"attributes":{
						"POSITION":0,
						"NORMAL":1,
						"TEXCOORD_0":2,
						"TANGENT":3
					},
					"indices":4,
					"material":0
				}
			]
		},
		{
			"name":"avaturn_glasses_0.001",
			"primitives":[
				{
					"attributes":{
						"POSITION":5,
						"NORMAL":6,
						"TEXCOORD_0":7,
						"TEXCOORD_1":8,
						"TANGENT":9
					},
					"indices":10,
					"material":1
				}
			]
		},
		{
			"name":"avaturn_glasses_1.001",
			"primitives":[
				{
					"attributes":{
						"POSITION":11,
						"NORMAL":12,
						"TEXCOORD_0":13,
						"TEXCOORD_1":14,
						"TANGENT":15,
						"COLOR_0":16,
						"COLOR_1":17
					},
					"indices":18,
					"material":2
				}
			]
		},
		{
			"name":"avaturn_hair_0.001",
			"primitives":[
				{
					"attributes":{
						"POSITION":19,
						"NORMAL":20,
						"TEXCOORD_0":21,
						"TANGENT":22
					},
					"indices":23,
					"material":3
				}
			]
		},
		{
			"name":"avaturn_hair_1.001",
			"primitives":[
				{
					"attributes":{
						"POSITION":24,
						"NORMAL":25,
						"TEXCOORD_0":26,
						"TANGENT":27
					},
					"indices":28,
					"material":4
				}
			]
		},
		{
			"name":"avaturn_look_0.001",
			"primitives":[
				{
					"attributes":{
						"POSITION":29,
						"NORMAL":30,
						"TEXCOORD_0":31,
						"TANGENT":32
					},
					"indices":33,
					"material":5
				}
			]
		},
		{
			"name":"avaturn_shoes_0.001",
			"primitives":[
				{
					"attributes":{
						"POSITION":34,
						"NORMAL":35,
						"TEXCOORD_0":36,
						"TANGENT":37
					},
					"indices":38,
					"material":6
				}
			]
		}
	],
	"textures":[
		{
			"sampler":0,
			"source":0
		},
		{
			"sampler":1,
			"source":1
		},
		{
			"sampler":1,
			"source":2
		},
		{
			"sampler":0,
			"source":3
		},
		{
			"sampler":0,
			"source":4
		},
		{
			"sampler":0,
			"source":5
		},
		{
			"sampler":1,
			"source":6
		},
		{
			"sampler":0,
			"source":5
		},
		{
			"sampler":1,
			"source":6
		},
		{
			"sampler":0,
			"source":7
		},
		{
			"sampler":0,
			"source":8
		},
		{
			"sampler":0,
			"source":9
		},
		{
			"sampler":0,
			"source":10
		},
		{
			"sampler":0,
			"source":11
		},
		{
			"sampler":0,
			"source":12
		},
		{
			"sampler":0,
			"source":13
		},
		{
			"sampler":0,
			"source":14
		}
	],
	"images":[
		{
			"mimeType":"image/jpeg",
			"name":"Image_2",
			"uri":"Image_2.jpg"
		},
		{
			"mimeType":"image/jpeg",
			"name":"Image_1",
			"uri":"Image_1.jpg"
		},
		{
			"mimeType":"image/jpeg",
			"name":"Image_0",
			"uri":"Image_0.jpg"
		},
		{
			"mimeType":"image/jpeg",
			"name":"Image_4",
			"uri":"Image_4.jpg"
		},
		{
			"mimeType":"image/jpeg",
			"name":"Image_3",
			"uri":"Image_3.jpg"
		},
		{
			"mimeType":"image/jpeg",
			"name":"Image_6",
			"uri":"Image_6.jpg"
		},
		{
			"mimeType":"image/png",
			"name":"Image_5",
			"uri":"Image_5.png"
		},
		{
			"mimeType":"image/jpeg",
			"name":"Image_13",
			"uri":"Image_13.jpg"
		},
		{
			"mimeType":"image/jpeg",
			"name":"Image_14",
			"uri":"Image_14.jpg"
		},
		{
			"mimeType":"image/jpeg",
			"name":"Image_12",
			"uri":"Image_12.jpg"
		},
		{
			"mimeType":"image/jpeg",
			"name":"Image_11",
			"uri":"Image_11.jpg"
		},
		{
			"mimeType":"image/jpeg",
			"name":"Image_9",
			"uri":"Image_9.jpg"
		},
		{
			"mimeType":"image/jpeg",
			"name":"Image_10",
			"uri":"Image_10.jpg"
		},
		{
			"mimeType":"image/jpeg",
			"name":"Image_8",
			"uri":"Image_8.jpg"
		},
		{
			"mimeType":"image/jpeg",
			"name":"Image_7",
			"uri":"Image_7.jpg"
		}
	],
	"accessors":[
		{
			"bufferView":0,
			"componentType":5126,
			"count":5664,
			"max":[
				0.43343934416770935,
				1.8245092630386353,
				0.1530514806509018
			],
			"min":[
				0.012507259845733643,
				0.016098033636808395,
				-0.2616661787033081
			],
			"type":"VEC3"
		},
		{
			"bufferView":1,
			"componentType":5126,
			"count":5664,
			"type":"VEC3"
		},
		{
			"bufferView":2,
			"componentType":5126,
			"count":5664,
			"type":"VEC2"
		},
		{
			"bufferView":3,
			"componentType":5126,
			"count":5664,
			"type":"VEC4"
		},
		{
			"bufferView":4,
			"componentType":5123,
			"count":31152,
			"type":"SCALAR"
		},
		{
			"bufferView":5,
			"componentType":5126,
			"count":1616,
			"max":[
				0.3200754225254059,
				1.7048593759536743,
				0.12747055292129517
			],
			"min":[
				0.13393577933311462,
				1.6550503969192505,
				-0.0569424033164978
			],
			"type":"VEC3"
		},
		{
			"bufferView":6,
			"componentType":5126,
			"count":1616,
			"type":"VEC3"
		},
		{
			"bufferView":7,
			"componentType":5126,
			"count":1616,
			"type":"VEC2"
		},
		{
			"bufferView":8,
			"componentType":5126,
			"count":1616,
			"type":"VEC2"
		},
		{
			"bufferView":9,
			"componentType":5126,
			"count":1616,
			"type":"VEC4"
		},
		{
			"bufferView":10,
			"componentType":5123,
			"count":4368,
			"type":"SCALAR"
		},
		{
			"bufferView":11,
			"componentType":5126,
			"count":32,
			"max":[
				0.2601396143436432,
				1.6957900524139404,
				0.12589377164840698
			],
			"min":[
				0.14228123426437378,
				1.6573989391326904,
				0.09167829900979996
			],
			"type":"VEC3"
		},
		{
			"bufferView":12,
			"componentType":5126,
			"count":32,
			"type":"VEC3"
		},
		{
			"bufferView":13,
			"componentType":5126,
			"count":32,
			"type":"VEC2"
		},
		{
			"bufferView":14,
			"componentType":5126,
			"count":32,
			"type":"VEC2"
		},
		{
			"bufferView":15,
			"componentType":5126,
			"count":32,
			"type":"VEC4"
		},
		{
			"bufferView":16,
			"componentType":5126,
			"count":32,
			"type":"VEC3"
		},
		{
			"bufferView":17,
			"componentType":5123,
			"count":32,
			"normalized":true,
			"type":"VEC4"
		},
		{
			"bufferView":18,
			"componentType":5123,
			"count":108,
			"type":"SCALAR"
		},
		{
			"bufferView":19,
			"componentType":5126,
			"count":1812,
			"max":[
				0.33030515909194946,
				1.8411891460418701,
				0.11453765630722046
			],
			"min":[
				0.13437436521053314,
				1.6557178497314453,
				-0.11664336919784546
			],
			"type":"VEC3"
		},
		{
			"bufferView":20,
			"componentType":5126,
			"count":1812,
			"type":"VEC3"
		},
		{
			"bufferView":21,
			"componentType":5126,
			"count":1812,
			"type":"VEC2"
		},
		{
			"bufferView":22,
			"componentType":5126,
			"count":1812,
			"type":"VEC4"
		},
		{
			"bufferView":23,
			"componentType":5123,
			"count":6288,
			"type":"SCALAR"
		},
		{
			"bufferView":24,
			"componentType":5126,
			"count":2655,
			"max":[
				0.3395004868507385,
				1.8499503135681152,
				0.11858707666397095
			],
			"min":[
				0.12404900044202805,
				1.6027522087097168,
				-0.12078562378883362
			],
			"type":"VEC3"
		},
		{
			"bufferView":25,
			"componentType":5126,
			"count":2655,
			"type":"VEC3"
		},
		{
			"bufferView":26,
			"componentType":5126,
			"count":2655,
			"type":"VEC2"
		},
		{
			"bufferView":27,
			"componentType":5126,
			"count":2655,
			"type":"VEC4"
		},
		{
			"bufferView":28,
			"componentType":5123,
			"count":8904,
			"type":"SCALAR"
		},
		{
			"bufferView":29,
			"componentType":5126,
			"count":3410,
			"max":[
				0.5212575793266296,
				1.6025235652923584,
				0.16430123150348663
			],
			"min":[
				0.0016255974769592285,
				0.07202266156673431,
				-0.2639463245868683
			],
			"type":"VEC3"
		},
		{
			"bufferView":30,
			"componentType":5126,
			"count":3410,
			"type":"VEC3"
		},
		{
			"bufferView":31,
			"componentType":5126,
			"count":3410,
			"type":"VEC2"
		},
		{
			"bufferView":32,
			"componentType":5126,
			"count":3410,
			"type":"VEC4"
		},
		{
			"bufferView":33,
			"componentType":5123,
			"count":16227,
			"type":"SCALAR"
		},
		{
			"bufferView":34,
			"componentType":5126,
			"count":4164,
			"max":[
				0.42889392375946045,
				0.0811048224568367,
				0.30609720945358276
			],
			"min":[
				-0.02707311511039734,
				-0.020654695108532906,
				-0.18703240156173706
			],
			"type":"VEC3"
		},
		{
			"bufferView":35,
			"componentType":5126,
			"count":4164,
			"type":"VEC3"
		},
		{
			"bufferView":36,
			"componentType":5126,
			"count":4164,
			"type":"VEC2"
		},
		{
			"bufferView":37,
			"componentType":5126,
			"count":4164,
			"type":"VEC4"
		},
		{
			"bufferView":38,
			"componentType":5123,
			"count":16092,
			"type":"SCALAR"
		}
	],
	"bufferViews":[
		{
			"buffer":0,
			"byteLength":67968,
			"byteOffset":0,
			"target":34962
		},
		{
			"buffer":0,
			"byteLength":67968,
			"byteOffset":67968,
			"target":34962
		},
		{
			"buffer":0,
			"byteLength":45312,
			"byteOffset":135936,
			"target":34962
		},
		{
			"buffer":0,
			"byteLength":90624,
			"byteOffset":181248,
			"target":34962
		},
		{
			"buffer":0,
			"byteLength":62304,
			"byteOffset":271872,
			"target":34963
		},
		{
			"buffer":0,
			"byteLength":19392,
			"byteOffset":334176,
			"target":34962
		},
		{
			"buffer":0,
			"byteLength":19392,
			"byteOffset":353568,
			"target":34962
		},
		{
			"buffer":0,
			"byteLength":12928,
			"byteOffset":372960,
			"target":34962
		},
		{
			"buffer":0,
			"byteLength":12928,
			"byteOffset":385888,
			"target":34962
		},
		{
			"buffer":0,
			"byteLength":25856,
			"byteOffset":398816,
			"target":34962
		},
		{
			"buffer":0,
			"byteLength":8736,
			"byteOffset":424672,
			"target":34963
		},
		{
			"buffer":0,
			"byteLength":384,
			"byteOffset":433408,
			"target":34962
		},
		{
			"buffer":0,
			"byteLength":384,
			"byteOffset":433792,
			"target":34962
		},
		{
			"buffer":0,
			"byteLength":256,
			"byteOffset":434176,
			"target":34962
		},
		{
			"buffer":0,
			"byteLength":256,
			"byteOffset":434432,
			"target":34962
		},
		{
			"buffer":0,
			"byteLength":512,
			"byteOffset":434688,
			"target":34962
		},
		{
			"buffer":0,
			"byteLength":384,
			"byteOffset":435200,
			"target":34962
		},
		{
			"buffer":0,
			"byteLength":256,
			"byteOffset":435584,
			"target":34962
		},
		{
			"buffer":0,
			"byteLength":216,
			"byteOffset":435840,
			"target":34963
		},
		{
			"buffer":0,
			"byteLength":21744,
			"byteOffset":436056,
			"target":34962
		},
		{
			"buffer":0,
			"byteLength":21744,
			"byteOffset":457800,
			"target":34962
		},
		{
			"buffer":0,
			"byteLength":14496,
			"byteOffset":479544,
			"target":34962
		},
		{
			"buffer":0,
			"byteLength":28992,
			"byteOffset":494040,
			"target":34962
		},
		{
			"buffer":0,
			"byteLength":12576,
			"byteOffset":523032,
			"target":34963
		},
		{
			"buffer":0,
			"byteLength":31860,
			"byteOffset":535608,
			"target":34962
		},
		{
			"buffer":0,
			"byteLength":31860,
			"byteOffset":567468,
			"target":34962
		},
		{
			"buffer":0,
			"byteLength":21240,
			"byteOffset":599328,
			"target":34962
		},
		{
			"buffer":0,
			"byteLength":42480,
			"byteOffset":620568,
			"target":34962
		},
		{
			"buffer":0,
			"byteLength":17808,
			"byteOffset":663048,
			"target":34963
		},
		{
			"buffer":0,
			"byteLength":40920,
			"byteOffset":680856,
			"target":34962
		},
		{
			"buffer":0,
			"byteLength":40920,
			"byteOffset":721776,
			"target":34962
		},
		{
			"buffer":0,
			"byteLength":27280,
			"byteOffset":762696,
			"target":34962
		},
		{
			"buffer":0,
			"byteLength":54560,
			"byteOffset":789976,
			"target":34962
		},
		{
			"buffer":0,
			"byteLength":32454,
			"byteOffset":844536,
			"target":34963
		},
		{
			"buffer":0,
			"byteLength":49968,
			"byteOffset":876992,
			"target":34962
		},
		{
			"buffer":0,
			"byteLength":49968,
			"byteOffset":926960,
			"target":34962
		},
		{
			"buffer":0,
			"byteLength":33312,
			"byteOffset":976928,
			"target":34962
		},
		{
			"buffer":0,
			"byteLength":66624,
			"byteOffset":1010240,
			"target":34962
		},
		{
			"buffer":0,
			"byteLength":32184,
			"byteOffset":1076864,
			"target":34963
		}
	],
	"samplers":[
		{
			"magFilter":9729,
			"minFilter":9987
		},
		{
			"magFilter":9729,
			"minFilter":9987,
			"wrapS":33071,
			"wrapT":33071
		}
	],
	"buffers":[
		{
			"byteLength":1109048,
			"uri":"suitmodel.bin"
		}
	]
}
