{
  "accessors": [
    {
      "bufferView": 2,
      "componentType": 5126,
      "count": 2142,
      "max": [
        7.448507785797119,
        29.77666473388672,
        8.5298433303833
      ],
      "min": [
        -7.448507785797119,
        -0.0003969999961555004,
        -7.002633094787598
      ],
      "type": "VEC3"
    },
    {
      "bufferView": 2,
      "byteOffset": 25704,
      "componentType": 5126,
      "count": 2142,
      "max": [
        0.9998720288276672,
        0.9999992251396179,
        0.9998950958251953
      ],
      "min": [
        -0.9998720288276672,
        -1.0,
        -0.9999963641166687
      ],
      "type": "VEC3"
    },
    {
      "bufferView": 3,
      "componentType": 5126,
      "count": 2142,
      "max": [
        1.0,
        0.9999398589134216,
        0.9996489882469177,
        1.0
      ],
      "min": [
        -0.9999999403953552,
        -0.994857132434845,
        -0.9999507069587708,
        -1.0
      ],
      "type": "VEC4"
    },
    {
      "bufferView": 1,
      "componentType": 5126,
      "count": 2142,
      "max": [
        0.9939010143280029,
        0.9945470094680786
      ],
      "min": [
        0.010571000166237354,
        0.009092000313103199
      ],
      "type": "VEC2"
    },
    {
      "bufferView": 0,
      "componentType": 5125,
      "count": 10116,
      "type": "SCALAR"
    },
    {
      "bufferView": 2,
      "byteOffset": 51408,
      "componentType": 5126,
      "count": 531,
      "max": [
        6.529531955718994,
        34.238433837890625,
        -6.057084083557129
      ],
      "min": [
        -5.741659164428711,
        10.873781204223633,
        -10.223892211914063
      ],
      "type": "VEC3"
    },
    {
      "bufferView": 2,
      "byteOffset": 57780,
      "componentType": 5126,
      "count": 531,
      "max": [
        0.9992465376853943,
        1.0,
        1.0
      ],
      "min": [
        -0.9991661310195923,
        -0.9726607799530029,
        -1.0
      ],
      "type": "VEC3"
    },
    {
      "bufferView": 3,
      "byteOffset": 34272,
      "componentType": 5126,
      "count": 531,
      "max": [
        0.9996958374977112,
        0.9988092184066772,
        0.9994069933891296,
        1.0
      ],
      "min": [
        -0.9999392628669739,
        -0.9996979832649231,
        -1.0,
        -1.0
      ],
      "type": "VEC4"
    },
    {
      "bufferView": 1,
      "byteOffset": 17136,
      "componentType": 5126,
      "count": 531,
      "max": [
        0.9804239869117737,
        0.9902340173721313
      ],
      "min": [
        0.00976600032299757,
        0.00976600032299757
      ],
      "type": "VEC2"
    },
    {
      "bufferView": 0,
      "byteOffset": 40464,
      "componentType": 5125,
      "count": 1884,
      "type": "SCALAR"
    },
    {
      "bufferView": 2,
      "byteOffset": 64152,
      "componentType": 5126,
      "count": 711,
      "max": [
        7.149779796600342,
        19.40962791442871,
        6.494811058044434
      ],
      "min": [
        -7.149779796600342,
        10.77595329284668,
        -6.280355930328369
      ],
      "type": "VEC3"
    },
    {
      "bufferView": 2,
      "byteOffset": 72684,
      "componentType": 5126,
      "count": 711,
      "max": [
        0.9991225004196167,
        0.9616137742996216,
        0.9969469904899597
      ],
      "min": [
        -0.9989768862724304,
        -0.9804220199584961,
        -0.9997184872627258
      ],
      "type": "VEC3"
    },
    {
      "bufferView": 3,
      "byteOffset": 42768,
      "componentType": 5126,
      "count": 711,
      "max": [
        0.9999995827674866,
        0.9999600052833557,
        0.9986116886138916,
        1.0
      ],
      "min": [
        -0.9996886253356934,
        -0.9924752116203308,
        -0.9943495392799377,
        -1.0
      ],
      "type": "VEC4"
    },
    {
      "bufferView": 1,
      "byteOffset": 21384,
      "componentType": 5126,
      "count": 711,
      "max": [
        0.9807900190353394,
        0.9894610047340393
      ],
      "min": [
        0.00976600032299757,
        0.00976600032299757
      ],
      "type": "VEC2"
    },
    {
      "bufferView": 0,
      "byteOffset": 48000,
      "componentType": 5125,
      "count": 2760,
      "type": "SCALAR"
    },
    {
      "bufferView": 2,
      "byteOffset": 81216,
      "componentType": 5126,
      "count": 681,
      "max": [
        8.059835433959961,
        22.802902221679688,
        9.3201265335083
      ],
      "min": [
        -6.357851028442383,
        7.45590877532959,
        -9.51317310333252
      ],
      "type": "VEC3"
    },
    {
      "bufferView": 2,
      "byteOffset": 89388,
      "componentType": 5126,
      "count": 681,
      "max": [
        1.0,
        1.0,
        1.0
      ],
      "min": [
        -1.0,
        -0.9707005023956299,
        -1.0
      ],
      "type": "VEC3"
    },
    {
      "bufferView": 3,
      "byteOffset": 54144,
      "componentType": 5126,
      "count": 681,
      "max": [
        0.9888725876808167,
        0.9999098777770996,
        0.9971307516098022,
        1.0
      ],
      "min": [
        -0.9999857544898987,
        -0.977204442024231,
        -0.9963106513023376,
        -1.0
      ],
      "type": "VEC4"
    },
    {
      "bufferView": 1,
      "byteOffset": 27072,
      "componentType": 5126,
      "count": 681,
      "max": [
        0.924938976764679,
        0.9858689904212952
      ],
      "min": [
        0.042994000017642975,
        0.00976600032299757
      ],
      "type": "VEC2"
    },
    {
      "bufferView": 0,
      "byteOffset": 59040,
      "componentType": 5125,
      "count": 3054,
      "type": "SCALAR"
    }
  ],
  "asset": {
    "extras": {
      "author": "Átila Becker (https://sketchfab.com/atilabecker)",
      "license": "CC-BY-4.0 (http://creativecommons.org/licenses/by/4.0/)",
      "source": "https://sketchfab.com/3d-models/among-us-b3d24b68216346388388df0edcad0e5e",
      "title": "Among Us"
    },
    "generator": "Sketchfab-12.68.0",
    "version": "2.0"
  },
  "bufferViews": [
    {
      "buffer": 0,
      "byteLength": 71256,
      "name": "floatBufferViews",
      "target": 34963
    },
    {
      "buffer": 0,
      "byteLength": 32520,
      "byteOffset": 71256,
      "byteStride": 8,
      "name": "floatBufferViews",
      "target": 34962
    },
    {
      "buffer": 0,
      "byteLength": 97560,
      "byteOffset": 103776,
      "byteStride": 12,
      "name": "floatBufferViews",
      "target": 34962
    },
    {
      "buffer": 0,
      "byteLength": 65040,
      "byteOffset": 201336,
      "byteStride": 16,
      "name": "floatBufferViews",
      "target": 34962
    }
  ],
  "buffers": [
    {
      "byteLength": 266376,
      "uri": "scene.bin"
    }
  ],
  "images": [
    {
      "uri": "textures/char_mat_baseColor.jpeg"
    },
    {
      "uri": "textures/char_mat_metallicRoughness.png"
    },
    {
      "uri": "textures/char_mat_normal.png"
    },
    {
      "uri": "textures/backpack_mat_baseColor.jpeg"
    },
    {
      "uri": "textures/backpack_mat_metallicRoughness.png"
    },
    {
      "uri": "textures/backpack_mat_normal.png"
    },
    {
      "uri": "textures/belt_mat_baseColor.jpeg"
    },
    {
      "uri": "textures/belt_mat_metallicRoughness.png"
    },
    {
      "uri": "textures/belt_mat_normal.png"
    },
    {
      "uri": "textures/pipes_knife_baseColor.jpeg"
    },
    {
      "uri": "textures/pipes_knife_metallicRoughness.png"
    },
    {
      "uri": "textures/pipes_knife_emissive.jpeg"
    },
    {
      "uri": "textures/pipes_knife_normal.png"
    }
  ],
  "materials": [
    {
      "doubleSided": true,
      "name": "char_mat",
      "normalTexture": {
        "index": 2
      },
      "occlusionTexture": {
        "index": 1
      },
      "pbrMetallicRoughness": {
        "baseColorTexture": {
          "index": 0
        },
        "metallicRoughnessTexture": {
          "index": 1
        }
      }
    },
    {
      "doubleSided": true,
      "name": "backpack_mat",
      "normalTexture": {
        "index": 5
      },
      "occlusionTexture": {
        "index": 4
      },
      "pbrMetallicRoughness": {
        "baseColorTexture": {
          "index": 3
        },
        "metallicRoughnessTexture": {
          "index": 4
        }
      }
    },
    {
      "doubleSided": true,
      "name": "belt_mat",
      "normalTexture": {
        "index": 8
      },
      "occlusionTexture": {
        "index": 7
      },
      "pbrMetallicRoughness": {
        "baseColorTexture": {
          "index": 6
        },
        "metallicRoughnessTexture": {
          "index": 7
        }
      }
    },
    {
      "doubleSided": true,
      "emissiveFactor": [
        1.0,
        1.0,
        1.0
      ],
      "emissiveTexture": {
        "index": 11
      },
      "name": "pipes_knife",
      "normalTexture": {
        "index": 12
      },
      "occlusionTexture": {
        "index": 10
      },
      "pbrMetallicRoughness": {
        "baseColorTexture": {
          "index": 9
        },
        "metallicRoughnessTexture": {
          "index": 10
        }
      }
    }
  ],
  "meshes": [
    {
      "name": "defaultMaterial",
      "primitives": [
        {
          "attributes": {
            "NORMAL": 1,
            "POSITION": 0,
            "TANGENT": 2,
            "TEXCOORD_0": 3
          },
          "indices": 4,
          "material": 0,
          "mode": 4
        }
      ]
    },
    {
      "name": "defaultMaterial",
      "primitives": [
        {
          "attributes": {
            "NORMAL": 6,
            "POSITION": 5,
            "TANGENT": 7,
            "TEXCOORD_0": 8
          },
          "indices": 9,
          "material": 1,
          "mode": 4
        }
      ]
    },
    {
      "name": "defaultMaterial",
      "primitives": [
        {
          "attributes": {
            "NORMAL": 11,
            "POSITION": 10,
            "TANGENT": 12,
            "TEXCOORD_0": 13
          },
          "indices": 14,
          "material": 2,
          "mode": 4
        }
      ]
    },
    {
      "name": "defaultMaterial",
      "primitives": [
        {
          "attributes": {
            "NORMAL": 16,
            "POSITION": 15,
            "TANGENT": 17,
            "TEXCOORD_0": 18
          },
          "indices": 19,
          "material": 3,
          "mode": 4
        }
      ]
    }
  ],
  "nodes": [
    {
      "children": [
        1
      ],
      "matrix": [
        0.04740479961037636,
        0.0,
        0.0,
        0.0,
        0.0,
        1.0525980001036297e-17,
        -0.04740479961037636,
        0.0,
        0.0,
        0.04740479961037636,
        1.0525980001036297e-17,
        0.0,
        0.0,
        0.0,
        0.0,
        1.0
      ],
      "name": "Sketchfab_model"
    },
    {
      "children": [
        2
      ],
      "matrix": [
        1.0,
        0.0,
        0.0,
        0.0,
        0.0,
        -4.371139006309477e-08,
        0.999999999999999,
        0.0,
        0.0,
        -0.999999999999999,
        -4.371139006309477e-08,
        0.0,
        0.0,
        0.0,
        0.0,
        1.0
      ],
      "name": "Collada visual scene group"
    },
    {
      "children": [
        3,
        5
      ],
      "name": "amongUs_low"
    },
    {
      "children": [
        4
      ],
      "name": "body_low"
    },
    {
      "mesh": 0,
      "name": "defaultMaterial"
    },
    {
      "children": [
        6,
        7,
        8
      ],
      "name": "assets_low"
    },
    {
      "mesh": 1,
      "name": "defaultMaterial"
    },
    {
      "mesh": 2,
      "name": "defaultMaterial"
    },
    {
      "mesh": 3,
      "name": "defaultMaterial"
    }
  ],
  "samplers": [
    {
      "magFilter": 9729,
      "minFilter": 9987,
      "wrapS": 10497,
      "wrapT": 10497
    }
  ],
  "scene": 0,
  "scenes": [
    {
      "name": "Sketchfab_Scene",
      "nodes": [
        0
      ]
    }
  ],
  "textures": [
    {
      "sampler": 0,
      "source": 0
    },
    {
      "sampler": 0,
      "source": 1
    },
    {
      "sampler": 0,
      "source": 2
    },
    {
      "sampler": 0,
      "source": 3
    },
    {
      "sampler": 0,
      "source": 4
    },
    {
      "sampler": 0,
      "source": 5
    },
    {
      "sampler": 0,
      "source": 6
    },
    {
      "sampler": 0,
      "source": 7
    },
    {
      "sampler": 0,
      "source": 8
    },
    {
      "sampler": 0,
      "source": 9
    },
    {
      "sampler": 0,
      "source": 10
    },
    {
      "sampler": 0,
      "source": 11
    },
    {
      "sampler": 0,
      "source": 12
    }
  ]
}
